<?xml version="1.0"?>
<svg xmlns="http://www.w3.org/2000/svg" xmlns:xlink="http://www.w3.org/1999/xlink" version="1.1" id="Capa_1" x="0px" y="0px" viewBox="0 0 344.498 344.498" style="enable-background:new 0 0 344.498 344.498;" xml:space="preserve" width="512px" height="512px" class=""><g><g>
	<g>
		<path d="M50.552,37.249c-1.2-2-3.6-3.6-6.4-3.6c-2.8,0-5.2,1.6-6.4,3.6c-5.2,9.6-31.6,58-31.6,76c0,20.8,17.2,38,38,38    c20.8,0,38-17.2,38-38C82.152,95.249,55.752,46.849,50.552,37.249z M44.152,136.449c-12.8,0-23.2-10.4-23.2-23.2    c0-9.2,12.4-36,23.2-56.8c10.8,20.8,23.2,48,23.2,56.8C67.352,126.049,56.952,136.449,44.152,136.449z" data-original="#000000" class="active-path" data-old_color="#EFDCDC" fill="#FBFBFB"/>
	</g>
</g><g>
	<g>
		<path d="M180.152,37.649c-2.4-4.8-10.4-4.8-12.8,0c-5.2,9.6-31.6,58-31.6,76c0,20.8,17.2,38,38,38s38-17.2,38-38    C211.752,95.649,185.352,47.249,180.152,37.649z M173.752,136.449c-12.8,0-23.2-10.4-23.2-23.2c0-9.2,12.4-36,23.2-56.8    c10.8,20.8,23.2,48,23.2,56.8C196.952,126.049,186.552,136.449,173.752,136.449z" data-original="#000000" class="active-path" data-old_color="#EFDCDC" fill="#FBFBFB"/>
	</g>
</g><g>
	<g>
		<path d="M309.752,37.249c-2.4-4.8-10.4-4.8-12.8,0c-5.2,9.6-31.6,58-31.6,76c0,21.2,17.2,38,38,38c20.8,0,38-17.2,38-38    C341.352,95.249,314.952,46.849,309.752,37.249z M303.352,136.449c-12.8,0-23.2-10.4-23.2-23.2c0-8.8,12.4-36,23.2-56.8    c10.8,20.8,23.2,47.6,23.2,56.8C326.552,126.049,316.152,136.449,303.352,136.449z" data-original="#000000" class="active-path" data-old_color="#EFDCDC" fill="#FBFBFB"/>
	</g>
</g><g>
	<g>
		<path d="M344.152,201.249c-2-4.4-6-6.4-10-5.2c-41.6,13.2-62,6.8-83.6,0c-21.2-6.4-42.8-13.2-80.8,0c-41.6,13.2-62,6.8-83.6,0    c-21.2-6.4-42.8-13.2-81.2,0c-4,1.2-6,5.6-4.4,9.2c1.2,4,5.6,6,9.2,4.4c33.6-11.6,51.6-6,72,0.4c12.8,4,26.4,8.4,44.8,8.4    c13.2,0,28.8-2.4,48-8.4c33.6-11.6,51.6-6,72,0.4c12.8,4,26.4,8.4,44.8,8.4c13.2,0,28.8-2.4,48-8.4    C343.352,209.249,345.352,205.249,344.152,201.249z" data-original="#000000" class="active-path" data-old_color="#EFDCDC" fill="#FBFBFB"/>
	</g>
</g><g>
	<g>
		<path d="M344.152,247.249c-2-4.4-6-6.4-10-5.2c-41.6,13.2-62,6.8-83.6,0c-21.2-6.4-42.8-13.2-80.8,0c-41.6,13.2-62,6.8-83.6,0    c-21.2-6.4-42.8-13.2-81.2,0c-4,1.2-6,5.6-4.4,9.2c1.2,4,5.6,6,9.2,4.4c33.6-11.6,51.6-6,72,0.4c12.8,4,26.4,8.4,44.8,8.4    c13.2,0,28.8-2.4,48-8.4c33.6-11.6,51.6-6,72,0.4c12.8,4,26.4,8.4,44.8,8.4c13.2,0,28.8-2.4,48-8.4    C343.352,255.249,345.352,251.249,344.152,247.249z" data-original="#000000" class="active-path" data-old_color="#EFDCDC" fill="#FBFBFB"/>
	</g>
</g><g>
	<g>
		<path d="M344.152,293.249c-2-4.4-6-6.4-10-5.2c-41.6,13.2-62,6.8-83.6,0c-21.2-6.4-42.8-13.2-80.8,0c-41.6,13.2-62,6.8-83.6,0    c-21.2-6.4-42.8-13.2-81.2,0c-4,1.2-6,5.6-4.4,9.2c1.2,4,5.6,6,9.2,4.4c33.6-11.6,51.6-6,72,0.4c12.8,4,26.4,8.4,44.8,8.4    c13.2,0,28.8-2.4,48-8.4c33.6-11.6,51.6-6,72,0.4c12.8,4,26.4,8.4,44.8,8.4c13.2,0,28.8-2.4,48-8.4    C343.352,301.249,345.352,297.249,344.152,293.249z" data-original="#000000" class="active-path" data-old_color="#EFDCDC" fill="#FBFBFB"/>
	</g>
</g></g> </svg>
